<?xml version="1.0" encoding="UTF-8"?>
<svg xmlns="http://www.w3.org/2000/svg" version="1.1" viewBox="0 0 512 512">
  <!-- Generator: Adobe Illustrator 30.5.1, SVG Export Plug-In . SVG Version: 2.1.4 Build 3)  -->
  <defs>
    <style>
      .st0 {
        fill: #00a99d;
      }

      .st1 {
        fill: #ffded7;
      }

      .st2 {
        fill: #ffa4a4;
      }

      .st3 {
        fill: #ffbdb9;
      }
    </style>
  </defs>
  <g id="bg">
    <rect id="background" class="st0" width="512" height="512"/>
  </g>
  <g id="main">
    <path id="bottom" class="st2" d="M48.62,296.69c-3.32-54.87,33.14-117.56,84.32-145.97,30.96-16.67,67.01-17.27,99.23-7.82,17.87,5.36,32.59,12.35,47.29,23.03,22.15,18.6,47.46,40.16,74.87,50.41,11.19,4.6,27.64,3.62,40.61,4.07,13.35.46,4.64-.56,16.36,1.8,29.29,5.89,63.47,34.04,63.86,72.38,1.89,34.92-18.27,65-40.15,76.32-11.66,5.85-15.6,6.26-43.74,9.63-25.38,2.44-59.62-5.99-86.57-7.8-18.81-1.26-50.02-5.69-68-1.86-26.92,5.25-21.43,2.75-49.17,8.67-28.5,6.08-72.05,9.77-83.94,3.95-9.83-4.81-26.12-9.42-35.86-32.31-7.71-18.12-18.35-37.86-19.11-54.5Z"/>
    <path id="top" class="st1" d="M54.84,321.53c-10.79-27.32-20.08-57.22-17.76-87.24,2.92-48.28,45.7-98.09,99.03-116.06,32.21-10.42,67.6-6.14,98.1,6.38,16.91,7.05,30.54,15.1,43.74,26.37,19.61,19.16,41.98,41.33,67.68,53.91,10.45,5.5,25.79,10.85,38.46,12.88,13.02,2.18,22.47,1.87,33.6,5.7,28.03,9.03,50.33,36.71,46.4,70.19-2.08,30.7-34.12,49.76-56.83,56.72-12.08,3.55-15.98,3.38-43.94,2.58-25.14-1.25-44.56-3.06-71.14-5.67-18.54-1.79-36.38-4.16-54.42-3.22-26.96,1-52.47,11.12-79.84,15.36-24.53,4.43-42.85,6.52-56.12.9-16.64-8.62-35.8-15.43-45.22-34.44l-1.75-4.36Z"/>
  </g>
  <g id="pattern">
    <path id="pattern1" class="st3" d="M76.53,194.9c13.58-21.49,32.68-30.64,39.54-33.81,3.15-1.46,48.04-21.6,72.25-1.92,11.78,9.58,6.84,18.97,20.52,29.26,14.17,10.66,23.38,3.5,41.22,13.84,4.1,2.37,21.27,12.33,26.26,31.32,6.1,23.27-10.38,43.78-13.76,47.77-9.74,11.5-24.22,16.51-52.78,26.07-27.67,9.26-41.5,13.9-61.26,14.9-22.63,1.15-45.47,2.31-62.85-12.92-14.67-12.85-17.84-30.71-20.34-44.85-1.83-10.35-7.19-40.56,11.21-69.67Z"/>
    <path id="pattern2" class="st3" d="M293.59,283.34c7.5-.81,16.55,4.61,20.99,8.65,7.05,6.4,6.8,13.19,6.67,15.32-.13,2.16-.88,7.32-5.99,11.78-4.71,4.11-10.58,5.42-19.47,7.4-7.35,1.64-11.03,2.46-13.18,1.61-11.58-4.57-7.21-42.79,10.99-44.76Z"/>
    <path id="pattern3" class="st3" d="M298.22,218.99c-4.49,6.32,1.28,19.28,4.03,25.46,2.97,6.66,8.96,16.64,24.77,27.52,6.43,4.42,54.84,36.73,95.81,15.42,7.76-4.03,13.1-6.81,13.89-11.88,4.18-26.68-123.65-77.45-138.51-56.52Z"/>
  </g>
</svg>